<svg xmlns="http://www.w3.org/2000/svg" xmlns:xlink="http://www.w3.org/1999/xlink" width="300" zoomAndPan="magnify" viewBox="0 0 224.87999 52.499999" height="70" preserveAspectRatio="xMidYMid meet" version="1.0"><defs><g/><clipPath id="7349cdbc65"><path d="M 196 11 L 223.761719 11 L 223.761719 40 L 196 40 Z M 196 11 " clip-rule="nonzero"/></clipPath></defs><g fill="#ffffff" fill-opacity="1"><g transform="translate(1.001319, 38.987953)"><g><path d="M 35.71875 -0.375 C 35.71875 -0.226562 35.660156 -0.101562 35.546875 0 C 35.429688 0.101562 35.3125 0.15625 35.1875 0.15625 L 30.875 0 L 27.09375 0.15625 C 26.726562 0.15625 26.546875 0 26.546875 -0.3125 C 26.546875 -0.632812 26.6875 -0.820312 26.96875 -0.875 L 27.625 -0.953125 C 28.6875 -1.078125 29.21875 -1.597656 29.21875 -2.515625 L 28.921875 -20.59375 C 28.921875 -20.84375 28.84375 -20.96875 28.6875 -20.96875 C 28.613281 -20.96875 28.5625 -20.929688 28.53125 -20.859375 L 18.140625 -0.078125 C 18.015625 0.148438 17.863281 0.265625 17.6875 0.265625 C 17.507812 0.265625 17.367188 0.148438 17.265625 -0.078125 L 6.84375 -20.25 C 6.8125 -20.320312 6.757812 -20.359375 6.6875 -20.359375 C 6.53125 -20.359375 6.453125 -20.234375 6.453125 -19.984375 L 6.234375 -2.515625 C 6.234375 -1.679688 6.738281 -1.175781 7.75 -1 L 8.40625 -0.875 C 8.738281 -0.820312 8.90625 -0.644531 8.90625 -0.34375 C 8.90625 -0.0390625 8.710938 0.109375 8.328125 0.109375 L 5.203125 0 L 1.484375 0.109375 C 1.128906 0.109375 0.953125 -0.0390625 0.953125 -0.34375 C 0.953125 -0.644531 1.09375 -0.820312 1.375 -0.875 L 2.484375 -1 C 3.648438 -1.125 4.234375 -1.628906 4.234375 -2.515625 L 4.703125 -24.21875 C 4.722656 -25.113281 4.210938 -25.625 3.171875 -25.75 L 2.484375 -25.828125 C 2.179688 -25.878906 2.03125 -26.0625 2.03125 -26.375 C 2.03125 -26.695312 2.21875 -26.859375 2.59375 -26.859375 L 5.953125 -26.75 C 6.828125 -26.71875 7.378906 -26.460938 7.609375 -25.984375 L 18.40625 -4.578125 L 28.953125 -25.984375 C 29.179688 -26.441406 29.742188 -26.695312 30.640625 -26.75 L 34.046875 -26.859375 C 34.453125 -26.859375 34.65625 -26.695312 34.65625 -26.375 C 34.65625 -26.0625 34.5 -25.878906 34.1875 -25.828125 L 33.5 -25.75 C 32.507812 -25.675781 32.015625 -25.164062 32.015625 -24.21875 L 32.46875 -2.515625 C 32.46875 -2.054688 32.625 -1.691406 32.9375 -1.421875 C 33.257812 -1.160156 33.664062 -1.003906 34.15625 -0.953125 L 35.265625 -0.875 C 35.566406 -0.875 35.71875 -0.707031 35.71875 -0.375 Z M 35.71875 -0.375 "/></g></g></g><g fill="#ffffff" fill-opacity="1"><g transform="translate(37.669195, 38.987953)"><g><path d="M 8.671875 -10.5 L 17.1875 -10.5 C 17.46875 -10.5 17.554688 -10.65625 17.453125 -10.96875 L 12.90625 -22.65625 L 8.359375 -10.890625 C 8.285156 -10.628906 8.390625 -10.5 8.671875 -10.5 Z M 5.125 -2.515625 C 5.070312 -2.367188 5.046875 -2.195312 5.046875 -2 C 5.046875 -1.8125 5.144531 -1.597656 5.34375 -1.359375 C 5.550781 -1.117188 5.832031 -0.984375 6.1875 -0.953125 L 7.03125 -0.875 C 7.363281 -0.820312 7.53125 -0.65625 7.53125 -0.375 C 7.53125 -0.0195312 7.335938 0.15625 6.953125 0.15625 L 3.625 0 L 0.15625 0.15625 C -0.195312 0.15625 -0.375 -0.015625 -0.375 -0.359375 C -0.375 -0.703125 -0.238281 -0.875 0.03125 -0.875 L 0.765625 -0.953125 C 1.859375 -1.078125 2.597656 -1.597656 2.984375 -2.515625 L 12.796875 -26.703125 C 12.898438 -27.003906 13.195312 -27.15625 13.6875 -27.15625 C 14.1875 -27.15625 14.5 -27.003906 14.625 -26.703125 L 24.40625 -2.515625 C 24.738281 -1.578125 25.46875 -1.054688 26.59375 -0.953125 L 27.390625 -0.875 C 27.492188 -0.875 27.582031 -0.820312 27.65625 -0.71875 C 27.738281 -0.625 27.78125 -0.523438 27.78125 -0.421875 C 27.78125 -0.0351562 27.597656 0.15625 27.234375 0.15625 L 22.84375 0 L 18.90625 0.15625 C 18.550781 0.15625 18.375 0 18.375 -0.3125 C 18.375 -0.664062 18.523438 -0.851562 18.828125 -0.875 L 19.71875 -0.953125 C 20.039062 -0.984375 20.3125 -1.113281 20.53125 -1.34375 C 20.75 -1.570312 20.859375 -1.785156 20.859375 -1.984375 C 20.859375 -2.191406 20.820312 -2.367188 20.75 -2.515625 L 18.484375 -8.359375 C 18.410156 -8.617188 18.207031 -8.75 17.875 -8.75 L 7.984375 -8.75 C 7.679688 -8.75 7.476562 -8.617188 7.375 -8.359375 Z M 5.125 -2.515625 "/></g></g></g><g fill="#ffffff" fill-opacity="1"><g transform="translate(65.055517, 38.987953)"><g><path d="M 29.078125 -0.875 C 29.359375 -0.875 29.5 -0.703125 29.5 -0.359375 C 29.5 -0.015625 29.316406 0.15625 28.953125 0.15625 L 24.671875 0 L 20.9375 0.15625 C 20.550781 0.15625 20.359375 -0.0195312 20.359375 -0.375 C 20.359375 -0.65625 20.5 -0.820312 20.78125 -0.875 L 21.46875 -0.953125 C 22.488281 -1.078125 23 -1.597656 23 -2.515625 L 23 -12 C 23 -12.476562 22.769531 -12.71875 22.3125 -12.71875 L 8.328125 -12.71875 C 8.148438 -12.71875 7.992188 -12.644531 7.859375 -12.5 C 7.734375 -12.363281 7.671875 -12.195312 7.671875 -12 L 7.671875 -2.515625 C 7.671875 -1.597656 8.179688 -1.078125 9.203125 -0.953125 L 9.859375 -0.875 C 10.191406 -0.820312 10.359375 -0.65625 10.359375 -0.375 C 10.359375 -0.226562 10.300781 -0.101562 10.1875 0 C 10.070312 0.101562 9.9375 0.15625 9.78125 0.15625 L 6 0 L 1.6875 0.15625 C 1.320312 0.15625 1.140625 -0.015625 1.140625 -0.359375 C 1.140625 -0.703125 1.28125 -0.875 1.5625 -0.875 L 2.671875 -0.953125 C 3.179688 -1.003906 3.601562 -1.160156 3.9375 -1.421875 C 4.269531 -1.691406 4.4375 -2.054688 4.4375 -2.515625 L 4.4375 -24.21875 C 4.4375 -25.132812 3.847656 -25.644531 2.671875 -25.75 L 1.5625 -25.859375 C 1.28125 -25.859375 1.140625 -26.03125 1.140625 -26.375 C 1.140625 -26.71875 1.320312 -26.890625 1.6875 -26.890625 L 6 -26.75 L 9.78125 -26.890625 C 10.164062 -26.890625 10.359375 -26.738281 10.359375 -26.4375 C 10.359375 -26.082031 10.191406 -25.890625 9.859375 -25.859375 L 9.203125 -25.75 C 8.179688 -25.570312 7.671875 -25.0625 7.671875 -24.21875 L 7.671875 -15.25 C 7.671875 -14.738281 7.925781 -14.484375 8.4375 -14.484375 L 22.265625 -14.484375 C 22.753906 -14.484375 23 -14.695312 23 -15.125 L 23 -24.21875 C 23 -25.0625 22.488281 -25.570312 21.46875 -25.75 L 20.78125 -25.859375 C 20.5 -25.910156 20.359375 -26.078125 20.359375 -26.359375 C 20.359375 -26.710938 20.550781 -26.890625 20.9375 -26.890625 L 24.671875 -26.75 L 28.953125 -26.890625 C 29.316406 -26.890625 29.5 -26.71875 29.5 -26.375 C 29.5 -26.03125 29.359375 -25.859375 29.078125 -25.859375 L 27.921875 -25.75 C 26.804688 -25.644531 26.25 -25.132812 26.25 -24.21875 L 26.25 -2.515625 C 26.25 -1.578125 26.804688 -1.054688 27.921875 -0.953125 Z M 29.078125 -0.875 "/></g></g></g><g fill="#ffffff" fill-opacity="1"><g transform="translate(95.688473, 38.987953)"><g><path d="M 8.671875 -10.5 L 17.1875 -10.5 C 17.46875 -10.5 17.554688 -10.65625 17.453125 -10.96875 L 12.90625 -22.65625 L 8.359375 -10.890625 C 8.285156 -10.628906 8.390625 -10.5 8.671875 -10.5 Z M 5.125 -2.515625 C 5.070312 -2.367188 5.046875 -2.195312 5.046875 -2 C 5.046875 -1.8125 5.144531 -1.597656 5.34375 -1.359375 C 5.550781 -1.117188 5.832031 -0.984375 6.1875 -0.953125 L 7.03125 -0.875 C 7.363281 -0.820312 7.53125 -0.65625 7.53125 -0.375 C 7.53125 -0.0195312 7.335938 0.15625 6.953125 0.15625 L 3.625 0 L 0.15625 0.15625 C -0.195312 0.15625 -0.375 -0.015625 -0.375 -0.359375 C -0.375 -0.703125 -0.238281 -0.875 0.03125 -0.875 L 0.765625 -0.953125 C 1.859375 -1.078125 2.597656 -1.597656 2.984375 -2.515625 L 12.796875 -26.703125 C 12.898438 -27.003906 13.195312 -27.15625 13.6875 -27.15625 C 14.1875 -27.15625 14.5 -27.003906 14.625 -26.703125 L 24.40625 -2.515625 C 24.738281 -1.578125 25.46875 -1.054688 26.59375 -0.953125 L 27.390625 -0.875 C 27.492188 -0.875 27.582031 -0.820312 27.65625 -0.71875 C 27.738281 -0.625 27.78125 -0.523438 27.78125 -0.421875 C 27.78125 -0.0351562 27.597656 0.15625 27.234375 0.15625 L 22.84375 0 L 18.90625 0.15625 C 18.550781 0.15625 18.375 0 18.375 -0.3125 C 18.375 -0.664062 18.523438 -0.851562 18.828125 -0.875 L 19.71875 -0.953125 C 20.039062 -0.984375 20.3125 -1.113281 20.53125 -1.34375 C 20.75 -1.570312 20.859375 -1.785156 20.859375 -1.984375 C 20.859375 -2.191406 20.820312 -2.367188 20.75 -2.515625 L 18.484375 -8.359375 C 18.410156 -8.617188 18.207031 -8.75 17.875 -8.75 L 7.984375 -8.75 C 7.679688 -8.75 7.476562 -8.617188 7.375 -8.359375 Z M 5.125 -2.515625 "/></g></g></g><g fill="#ffffff" fill-opacity="1"><g transform="translate(123.074795, 38.987953)"><g><path d="M 7.75 -24.21875 L 7.75 0.1875 C 7.75 2.789062 7.320312 4.882812 6.46875 6.46875 C 5.613281 8.0625 4.421875 9.367188 2.890625 10.390625 C 1.773438 11.109375 1.054688 11.46875 0.734375 11.46875 C 0.421875 11.46875 0.210938 11.375 0.109375 11.1875 C -0.0664062 10.863281 -0.15625 10.632812 -0.15625 10.5 C -0.15625 10.375 -0.0664062 10.25 0.109375 10.125 C 1.410156 9.207031 2.238281 8.53125 2.59375 8.09375 C 3.863281 6.75 4.5 4.765625 4.5 2.140625 L 4.5 -24.21875 C 4.5 -25.132812 3.914062 -25.644531 2.75 -25.75 L 1.640625 -25.859375 C 1.359375 -25.910156 1.21875 -26.078125 1.21875 -26.359375 C 1.21875 -26.710938 1.394531 -26.890625 1.75 -26.890625 L 6.0625 -26.75 L 9.84375 -26.890625 C 10.226562 -26.890625 10.421875 -26.738281 10.421875 -26.4375 C 10.421875 -26.082031 10.253906 -25.890625 9.921875 -25.859375 L 9.28125 -25.75 C 8.257812 -25.570312 7.75 -25.0625 7.75 -24.21875 Z M 7.75 -24.21875 "/></g></g></g><g fill="#ffffff" fill-opacity="1"><g transform="translate(135.182842, 38.987953)"><g><path d="M 15.34375 -27.15625 C 19.351562 -27.15625 22.570312 -25.875 25 -23.3125 C 27.4375 -20.757812 28.65625 -17.46875 28.65625 -13.4375 C 28.65625 -9.414062 27.410156 -6.097656 24.921875 -3.484375 C 22.441406 -0.878906 19.222656 0.421875 15.265625 0.421875 C 11.304688 0.421875 8.085938 -0.875 5.609375 -3.46875 C 3.140625 -6.070312 1.90625 -9.363281 1.90625 -13.34375 C 1.90625 -17.332031 3.140625 -20.628906 5.609375 -23.234375 C 8.085938 -25.847656 11.332031 -27.15625 15.34375 -27.15625 Z M 22.84375 -21.171875 C 22.101562 -22.460938 21.082031 -23.488281 19.78125 -24.25 C 18.488281 -25.019531 16.976562 -25.40625 15.25 -25.40625 C 12.132812 -25.40625 9.726562 -24.457031 8.03125 -22.5625 C 6.34375 -20.664062 5.5 -18.085938 5.5 -14.828125 C 5.5 -11.429688 6.265625 -8.398438 7.796875 -5.734375 C 8.535156 -4.410156 9.566406 -3.347656 10.890625 -2.546875 C 12.210938 -1.742188 13.726562 -1.34375 15.4375 -1.34375 C 18.46875 -1.34375 20.828125 -2.332031 22.515625 -4.3125 C 24.210938 -6.300781 25.0625 -8.972656 25.0625 -12.328125 C 25.0625 -15.691406 24.320312 -18.640625 22.84375 -21.171875 Z M 22.84375 -21.171875 "/></g></g></g><g fill="#ffffff" fill-opacity="1"><g transform="translate(165.73942, 38.987953)"><g><path d="M 23.421875 -5.6875 L 23.421875 -24.21875 C 23.421875 -25.113281 22.847656 -25.625 21.703125 -25.75 L 20.59375 -25.859375 C 20.3125 -25.910156 20.171875 -26.085938 20.171875 -26.390625 C 20.171875 -26.703125 20.347656 -26.859375 20.703125 -26.859375 L 24.40625 -26.75 L 27.390625 -26.859375 C 27.773438 -26.859375 27.96875 -26.703125 27.96875 -26.390625 C 27.96875 -26.085938 27.800781 -25.910156 27.46875 -25.859375 L 26.8125 -25.75 C 25.800781 -25.570312 25.296875 -25.0625 25.296875 -24.21875 L 25.296875 -0.03125 C 25.296875 0.269531 25.15625 0.421875 24.875 0.421875 L 24.375 0.421875 C 23.738281 0.421875 23.191406 0.113281 22.734375 -0.5 L 6.640625 -21.09375 C 6.597656 -21.144531 6.523438 -21.171875 6.421875 -21.171875 C 6.316406 -21.171875 6.265625 -21.039062 6.265625 -20.78125 L 6.265625 -2.515625 C 6.265625 -1.679688 6.773438 -1.175781 7.796875 -1 L 8.4375 -0.875 C 8.769531 -0.820312 8.9375 -0.644531 8.9375 -0.34375 C 8.9375 -0.0390625 8.742188 0.109375 8.359375 0.109375 L 5.390625 0 L 1.6875 0.109375 C 1.320312 0.109375 1.140625 -0.0390625 1.140625 -0.34375 C 1.140625 -0.644531 1.28125 -0.820312 1.5625 -0.875 L 2.671875 -1 C 3.847656 -1.125 4.4375 -1.628906 4.4375 -2.515625 L 4.4375 -24.21875 C 4.4375 -25.113281 3.925781 -25.625 2.90625 -25.75 L 2.21875 -25.828125 C 1.90625 -25.878906 1.75 -26.0625 1.75 -26.375 C 1.75 -26.695312 1.941406 -26.859375 2.328125 -26.859375 L 5.390625 -26.75 C 6.128906 -26.71875 6.6875 -26.472656 7.0625 -26.015625 L 23 -5.578125 C 23.070312 -5.503906 23.160156 -5.46875 23.265625 -5.46875 C 23.367188 -5.46875 23.421875 -5.539062 23.421875 -5.6875 Z M 23.421875 -5.6875 "/></g></g></g><g clip-path="url(#7349cdbc65)"><g fill="#ffffff" fill-opacity="1"><g transform="translate(194.844536, 38.987953)"><g><path d="M 15.9375 -27.15625 C 18.070312 -27.15625 20.007812 -26.863281 21.75 -26.28125 C 23.5 -25.695312 24.375 -25.125 24.375 -24.5625 L 24.375 -20.203125 C 24.375 -20.023438 24.316406 -19.851562 24.203125 -19.6875 C 24.085938 -19.53125 23.941406 -19.453125 23.765625 -19.453125 C 23.328125 -19.453125 23.046875 -19.703125 22.921875 -20.203125 C 22.460938 -21.910156 21.609375 -23.25 20.359375 -24.21875 C 19.109375 -25.1875 17.632812 -25.671875 15.9375 -25.671875 C 12.769531 -25.671875 10.25 -24.613281 8.375 -22.5 C 6.507812 -20.382812 5.578125 -17.695312 5.578125 -14.4375 C 5.578125 -12.300781 5.992188 -10.238281 6.828125 -8.25 C 7.671875 -6.257812 8.875 -4.617188 10.4375 -3.328125 C 12.007812 -2.046875 13.742188 -1.40625 15.640625 -1.40625 C 17.535156 -1.40625 19.140625 -1.796875 20.453125 -2.578125 C 21.765625 -3.359375 22.421875 -4.179688 22.421875 -5.046875 L 22.421875 -9.78125 C 22.421875 -10.75 21.847656 -11.257812 20.703125 -11.3125 L 18.640625 -11.421875 C 18.359375 -11.421875 18.21875 -11.59375 18.21875 -11.9375 C 18.21875 -12.28125 18.382812 -12.453125 18.71875 -12.453125 L 23.921875 -12.296875 L 27.703125 -12.453125 C 28.054688 -12.453125 28.234375 -12.300781 28.234375 -12 C 28.234375 -11.644531 28.082031 -11.453125 27.78125 -11.421875 L 27.125 -11.3125 C 26.101562 -11.132812 25.59375 -10.625 25.59375 -9.78125 L 25.59375 -2.40625 L 25.828125 -0.265625 C 25.878906 0.191406 25.6875 0.421875 25.25 0.421875 C 24.96875 0.421875 24.738281 0.253906 24.5625 -0.078125 C 24.15625 -0.992188 23.484375 -1.453125 22.546875 -1.453125 C 22.335938 -1.453125 21.953125 -1.300781 21.390625 -1 C 19.660156 -0.0507812 17.625 0.421875 15.28125 0.421875 C 11.3125 0.421875 8.085938 -0.890625 5.609375 -3.515625 C 3.140625 -6.140625 1.90625 -9.429688 1.90625 -13.390625 C 1.90625 -17.347656 3.203125 -20.628906 5.796875 -23.234375 C 8.398438 -25.847656 11.78125 -27.15625 15.9375 -27.15625 Z M 15.9375 -27.15625 "/></g></g></g></g></svg>