<svg xmlns="http://www.w3.org/2000/svg" xmlns:xlink="http://www.w3.org/1999/xlink" width="300" zoomAndPan="magnify" viewBox="0 0 224.87999 52.499999" height="70" preserveAspectRatio="xMidYMid meet" version="1.0"><defs><g/></defs><g fill="#ffffff" fill-opacity="1"><g transform="translate(67.055895, 35.909413)"><g><path d="M 23.6875 3.859375 C 25.601562 3.859375 27.15625 3.476562 28.34375 2.71875 L 28.53125 2.9375 C 26.945312 5.132812 24.972656 6.351562 22.609375 6.59375 C 22.109375 6.65625 21.675781 6.6875 21.3125 6.6875 C 20.945312 6.6875 20.53125 6.671875 20.0625 6.640625 C 19.59375 6.609375 18.929688 6.484375 18.078125 6.265625 C 17.234375 6.046875 16.484375 5.816406 15.828125 5.578125 C 15.179688 5.347656 14.429688 5.046875 13.578125 4.671875 C 12.734375 4.296875 12.035156 3.960938 11.484375 3.671875 C 10.929688 3.390625 10.269531 3.046875 9.5 2.640625 C 8.726562 2.242188 8.054688 1.90625 7.484375 1.625 C 6.910156 1.351562 6.359375 1.117188 5.828125 0.921875 C 4.304688 0.304688 2.753906 0 1.171875 0 L 1.171875 -0.28125 L 1.53125 -0.28125 C 2.007812 -0.28125 2.414062 -0.445312 2.75 -0.78125 C 3.09375 -1.113281 3.273438 -1.53125 3.296875 -2.03125 L 3.296875 -17.390625 C 3.273438 -17.890625 3.09375 -18.304688 2.75 -18.640625 C 2.414062 -18.972656 2.007812 -19.140625 1.53125 -19.140625 L 1.171875 -19.140625 L 1.171875 -19.40625 L 9.59375 -19.40625 L 9.5625 -19.140625 L 9.296875 -19.140625 C 8.585938 -19.140625 8.054688 -18.851562 7.703125 -18.28125 C 7.535156 -18.019531 7.453125 -17.722656 7.453125 -17.390625 L 7.453125 -1.296875 C 7.453125 -0.691406 7.570312 -0.269531 7.8125 -0.03125 C 8.0625 0.195312 8.332031 0.351562 8.625 0.4375 C 15.570312 2.71875 20.59375 3.859375 23.6875 3.859375 Z M 23.6875 3.859375 "/></g></g></g><g fill="#ffffff" fill-opacity="1"><g transform="translate(77.704849, 35.909413)"><g><path d="M 12.203125 -19.796875 C 15.617188 -19.796875 18.332031 -18.890625 20.34375 -17.078125 C 22.363281 -15.265625 23.375 -12.804688 23.375 -9.703125 C 23.375 -6.597656 22.363281 -4.140625 20.34375 -2.328125 C 18.332031 -0.515625 15.617188 0.390625 12.203125 0.390625 C 8.785156 0.390625 6.066406 -0.515625 4.046875 -2.328125 C 2.035156 -4.140625 1.03125 -6.597656 1.03125 -9.703125 C 1.03125 -11.753906 1.484375 -13.539062 2.390625 -15.0625 C 3.304688 -16.59375 4.601562 -17.765625 6.28125 -18.578125 C 7.96875 -19.390625 9.941406 -19.796875 12.203125 -19.796875 Z M 7.359375 -3.171875 C 8.554688 -1.578125 10.171875 -0.78125 12.203125 -0.78125 C 14.234375 -0.78125 15.84375 -1.578125 17.03125 -3.171875 C 18.226562 -4.773438 18.828125 -6.953125 18.828125 -9.703125 C 18.828125 -11.515625 18.554688 -13.09375 18.015625 -14.4375 C 17.484375 -15.789062 16.71875 -16.828125 15.71875 -17.546875 C 14.726562 -18.273438 13.554688 -18.640625 12.203125 -18.640625 C 10.171875 -18.640625 8.554688 -17.835938 7.359375 -16.234375 C 6.171875 -14.640625 5.578125 -12.460938 5.578125 -9.703125 C 5.578125 -6.953125 6.171875 -4.773438 7.359375 -3.171875 Z M 7.359375 -3.171875 "/></g></g></g><g fill="#ffffff" fill-opacity="1"><g transform="translate(100.888692, 35.909413)"><g><path d="M 22.71875 -9.015625 L 22.296875 -9.015625 C 21.847656 -9.015625 21.503906 -8.90625 21.265625 -8.6875 C 21.023438 -8.476562 20.90625 -8.171875 20.90625 -7.765625 L 20.90625 -3.1875 C 20.1875 -2.25 18.992188 -1.414062 17.328125 -0.6875 C 15.671875 0.03125 13.804688 0.390625 11.734375 0.390625 C 8.566406 0.390625 6.023438 -0.519531 4.109375 -2.34375 C 2.203125 -4.164062 1.25 -6.625 1.25 -9.71875 C 1.25 -12.8125 2.203125 -15.265625 4.109375 -17.078125 C 6.023438 -18.890625 8.617188 -19.796875 11.890625 -19.796875 C 13.367188 -19.796875 14.800781 -19.648438 16.1875 -19.359375 C 17.582031 -19.078125 18.703125 -18.722656 19.546875 -18.296875 L 19.609375 -13.53125 L 19.359375 -13.53125 C 18.878906 -15.320312 18.054688 -16.617188 16.890625 -17.421875 C 15.722656 -18.234375 14.335938 -18.640625 12.734375 -18.640625 C 10.492188 -18.640625 8.769531 -17.835938 7.5625 -16.234375 C 6.363281 -14.640625 5.765625 -12.445312 5.765625 -9.65625 C 5.765625 -6.875 6.3125 -4.695312 7.40625 -3.125 C 8.507812 -1.5625 10.070312 -0.78125 12.09375 -0.78125 C 13.550781 -0.78125 14.769531 -1.195312 15.75 -2.03125 C 16.226562 -2.445312 16.582031 -2.941406 16.8125 -3.515625 L 16.8125 -7.765625 C 16.8125 -8.171875 16.6875 -8.476562 16.4375 -8.6875 C 16.1875 -8.90625 15.828125 -9.015625 15.359375 -9.015625 L 14.921875 -9.015625 L 14.921875 -9.296875 L 22.71875 -9.296875 Z M 22.71875 -9.015625 "/></g></g></g><g fill="#ffffff" fill-opacity="1"><g transform="translate(122.880055, 35.909413)"><g><path d="M 1.53125 -0.28125 C 2.007812 -0.28125 2.414062 -0.445312 2.75 -0.78125 C 3.09375 -1.125 3.273438 -1.539062 3.296875 -2.03125 L 3.296875 -17.421875 C 3.273438 -17.898438 3.09375 -18.304688 2.75 -18.640625 C 2.414062 -18.972656 2.007812 -19.140625 1.53125 -19.140625 L 1.171875 -19.140625 L 1.171875 -19.40625 L 9.59375 -19.40625 L 9.5625 -19.140625 L 9.234375 -19.140625 C 8.753906 -19.140625 8.335938 -18.972656 7.984375 -18.640625 C 7.628906 -18.304688 7.453125 -17.898438 7.453125 -17.421875 L 7.453125 -2.03125 C 7.453125 -1.539062 7.628906 -1.125 7.984375 -0.78125 C 8.335938 -0.445312 8.753906 -0.28125 9.234375 -0.28125 L 9.5625 -0.28125 L 9.59375 0 L 1.171875 0 L 1.171875 -0.28125 Z M 1.53125 -0.28125 "/></g></g></g><g fill="#ffffff" fill-opacity="1"><g transform="translate(132.391996, 35.909413)"><g><path d="M 22.65625 -19.140625 C 22.195312 -19.140625 21.800781 -18.976562 21.46875 -18.65625 C 21.132812 -18.332031 20.957031 -17.9375 20.9375 -17.46875 L 20.9375 -3.15625 C 20.9375 -1.914062 21.019531 -0.875 21.1875 -0.03125 L 21.265625 0.390625 L 21.015625 0.390625 L 7.015625 -12.953125 L 7.015625 -1.9375 C 7.015625 -1.476562 7.179688 -1.085938 7.515625 -0.765625 C 7.847656 -0.441406 8.242188 -0.28125 8.703125 -0.28125 L 9.234375 -0.28125 L 9.234375 0 L 0.828125 0 L 0.828125 -0.28125 L 1.328125 -0.28125 C 1.804688 -0.28125 2.210938 -0.441406 2.546875 -0.765625 C 2.878906 -1.085938 3.046875 -1.488281 3.046875 -1.96875 L 3.046875 -16.359375 C 3.046875 -17.578125 2.960938 -18.59375 2.796875 -19.40625 L 2.75 -19.828125 L 3 -19.828125 L 17 -6.484375 L 17 -17.4375 C 16.976562 -17.925781 16.800781 -18.332031 16.46875 -18.65625 C 16.132812 -18.976562 15.738281 -19.140625 15.28125 -19.140625 L 14.78125 -19.140625 L 14.78125 -19.40625 L 23.1875 -19.40625 L 23.1875 -19.140625 Z M 22.65625 -19.140625 "/></g></g></g></svg>