<svg xmlns="http://www.w3.org/2000/svg" xmlns:xlink="http://www.w3.org/1999/xlink" width="300" zoomAndPan="magnify" viewBox="0 0 224.87999 52.499999" height="70" preserveAspectRatio="xMidYMid meet" version="1.0"><defs><g/></defs><g fill="#ffffff" fill-opacity="1"><g transform="translate(43.723423, 35.909413)"><g><path d="M 30.09375 4.71875 C 28.644531 5.4375 27.109375 5.796875 25.484375 5.796875 C 24.046875 5.796875 22.734375 5.570312 21.546875 5.125 C 18.992188 4.1875 16.820312 2.347656 15.03125 -0.390625 C 14.570312 -1.054688 13.710938 -2.332031 12.453125 -4.21875 C 11.191406 -6.101562 10.378906 -7.304688 10.015625 -7.828125 C 9.367188 -8.835938 8.847656 -9.390625 8.453125 -9.484375 L 8.453125 -9.765625 C 8.472656 -9.765625 8.492188 -9.765625 8.515625 -9.765625 C 8.546875 -9.765625 8.582031 -9.765625 8.625 -9.765625 C 8.664062 -9.765625 8.703125 -9.765625 8.734375 -9.765625 C 8.773438 -9.765625 8.820312 -9.765625 8.875 -9.765625 C 8.925781 -9.765625 8.972656 -9.765625 9.015625 -9.765625 C 9.953125 -9.765625 10.820312 -9.976562 11.625 -10.40625 C 12.820312 -11.070312 13.421875 -12.300781 13.421875 -14.09375 C 13.421875 -15.40625 13.050781 -16.414062 12.3125 -17.125 C 11.570312 -17.832031 10.6875 -18.1875 9.65625 -18.1875 L 7.546875 -18.1875 L 7.546875 -2.03125 C 7.546875 -1.539062 7.71875 -1.125 8.0625 -0.78125 C 8.414062 -0.445312 8.832031 -0.28125 9.3125 -0.28125 L 9.671875 -0.28125 L 9.671875 0 L 1.25 0 L 1.25 -0.28125 L 1.609375 -0.28125 C 2.066406 -0.28125 2.472656 -0.445312 2.828125 -0.78125 C 3.179688 -1.113281 3.367188 -1.519531 3.390625 -2 L 3.390625 -17.390625 C 3.367188 -17.867188 3.1875 -18.28125 2.84375 -18.625 C 2.5 -18.96875 2.085938 -19.140625 1.609375 -19.140625 L 1.25 -19.140625 L 1.25 -19.40625 L 10.765625 -19.40625 C 13.148438 -19.40625 15 -18.863281 16.3125 -17.78125 C 17.34375 -16.925781 17.859375 -15.722656 17.859375 -14.171875 C 17.859375 -12.617188 17.351562 -11.359375 16.34375 -10.390625 C 15.34375 -9.421875 14.191406 -8.9375 12.890625 -8.9375 C 12.785156 -8.9375 12.664062 -8.941406 12.53125 -8.953125 C 13.289062 -8.546875 13.925781 -8.09375 14.4375 -7.59375 C 14.945312 -7.09375 15.390625 -6.617188 15.765625 -6.171875 C 16.140625 -5.734375 16.460938 -5.34375 16.734375 -5 C 17.003906 -4.664062 17.359375 -4.210938 17.796875 -3.640625 C 18.242188 -3.078125 18.707031 -2.488281 19.1875 -1.875 C 19.664062 -1.269531 20.195312 -0.648438 20.78125 -0.015625 C 21.363281 0.617188 22.007812 1.222656 22.71875 1.796875 C 23.4375 2.367188 24.164062 2.84375 24.90625 3.21875 C 26.476562 4.007812 28.207031 4.414062 30.09375 4.4375 Z M 30.09375 4.71875 "/></g></g></g><g fill="#ffffff" fill-opacity="1"><g transform="translate(62.80292, 35.909413)"><g><path d="M 1.53125 -0.28125 C 2.007812 -0.28125 2.414062 -0.445312 2.75 -0.78125 C 3.09375 -1.125 3.273438 -1.539062 3.296875 -2.03125 L 3.296875 -17.46875 C 3.242188 -18.113281 2.941406 -18.597656 2.390625 -18.921875 C 2.109375 -19.066406 1.820312 -19.140625 1.53125 -19.140625 L 1.171875 -19.140625 L 1.171875 -19.40625 L 11.78125 -19.40625 C 12.351562 -19.40625 12.984375 -19.460938 13.671875 -19.578125 C 14.359375 -19.691406 14.835938 -19.800781 15.109375 -19.90625 L 15.109375 -15.0625 L 14.84375 -15.0625 L 14.84375 -15.390625 C 14.84375 -16.222656 14.597656 -16.894531 14.109375 -17.40625 C 13.617188 -17.914062 12.957031 -18.1875 12.125 -18.21875 L 7.453125 -18.21875 L 7.453125 -10.15625 L 11.125 -10.15625 C 11.800781 -10.164062 12.363281 -10.394531 12.8125 -10.84375 C 13.257812 -11.300781 13.484375 -11.863281 13.484375 -12.53125 L 13.484375 -12.78125 L 13.75 -12.78125 L 13.75 -6.375 L 13.484375 -6.375 L 13.484375 -6.59375 C 13.484375 -7.519531 13.113281 -8.207031 12.375 -8.65625 C 12 -8.851562 11.59375 -8.960938 11.15625 -8.984375 L 7.453125 -8.984375 L 7.453125 -1.1875 L 11.09375 -1.1875 C 12.445312 -1.1875 13.578125 -1.570312 14.484375 -2.34375 C 15.398438 -3.125 16.082031 -4.226562 16.53125 -5.65625 L 16.8125 -5.65625 L 15.53125 0 L 1.171875 0 L 1.171875 -0.28125 Z M 1.53125 -0.28125 "/></g></g></g><g fill="#ffffff" fill-opacity="1"><g transform="translate(79.109214, 35.909413)"><g><path d="M 22.71875 -9.015625 L 22.296875 -9.015625 C 21.847656 -9.015625 21.503906 -8.90625 21.265625 -8.6875 C 21.023438 -8.476562 20.90625 -8.171875 20.90625 -7.765625 L 20.90625 -3.1875 C 20.1875 -2.25 18.992188 -1.414062 17.328125 -0.6875 C 15.671875 0.03125 13.804688 0.390625 11.734375 0.390625 C 8.566406 0.390625 6.023438 -0.519531 4.109375 -2.34375 C 2.203125 -4.164062 1.25 -6.625 1.25 -9.71875 C 1.25 -12.8125 2.203125 -15.265625 4.109375 -17.078125 C 6.023438 -18.890625 8.617188 -19.796875 11.890625 -19.796875 C 13.367188 -19.796875 14.800781 -19.648438 16.1875 -19.359375 C 17.582031 -19.078125 18.703125 -18.722656 19.546875 -18.296875 L 19.609375 -13.53125 L 19.359375 -13.53125 C 18.878906 -15.320312 18.054688 -16.617188 16.890625 -17.421875 C 15.722656 -18.234375 14.335938 -18.640625 12.734375 -18.640625 C 10.492188 -18.640625 8.769531 -17.835938 7.5625 -16.234375 C 6.363281 -14.640625 5.765625 -12.445312 5.765625 -9.65625 C 5.765625 -6.875 6.3125 -4.695312 7.40625 -3.125 C 8.507812 -1.5625 10.070312 -0.78125 12.09375 -0.78125 C 13.550781 -0.78125 14.769531 -1.195312 15.75 -2.03125 C 16.226562 -2.445312 16.582031 -2.941406 16.8125 -3.515625 L 16.8125 -7.765625 C 16.8125 -8.171875 16.6875 -8.476562 16.4375 -8.6875 C 16.1875 -8.90625 15.828125 -9.015625 15.359375 -9.015625 L 14.921875 -9.015625 L 14.921875 -9.296875 L 22.71875 -9.296875 Z M 22.71875 -9.015625 "/></g></g></g><g fill="#ffffff" fill-opacity="1"><g transform="translate(101.100577, 35.909413)"><g><path d="M 1.53125 -0.28125 C 2.007812 -0.28125 2.414062 -0.445312 2.75 -0.78125 C 3.09375 -1.125 3.273438 -1.539062 3.296875 -2.03125 L 3.296875 -17.421875 C 3.273438 -17.898438 3.09375 -18.304688 2.75 -18.640625 C 2.414062 -18.972656 2.007812 -19.140625 1.53125 -19.140625 L 1.171875 -19.140625 L 1.171875 -19.40625 L 9.59375 -19.40625 L 9.5625 -19.140625 L 9.234375 -19.140625 C 8.753906 -19.140625 8.335938 -18.972656 7.984375 -18.640625 C 7.628906 -18.304688 7.453125 -17.898438 7.453125 -17.421875 L 7.453125 -2.03125 C 7.453125 -1.539062 7.628906 -1.125 7.984375 -0.78125 C 8.335938 -0.445312 8.753906 -0.28125 9.234375 -0.28125 L 9.5625 -0.28125 L 9.59375 0 L 1.171875 0 L 1.171875 -0.28125 Z M 1.53125 -0.28125 "/></g></g></g><g fill="#ffffff" fill-opacity="1"><g transform="translate(110.612518, 35.909413)"><g><path d="M 1.390625 -2.578125 C 1.390625 -3.910156 1.675781 -5.046875 2.25 -5.984375 L 2.5 -5.984375 C 2.476562 -5.835938 2.46875 -5.691406 2.46875 -5.546875 C 2.46875 -4.273438 2.925781 -3.160156 3.84375 -2.203125 C 4.757812 -1.253906 6.007812 -0.78125 7.59375 -0.78125 C 8.832031 -0.78125 9.796875 -1.070312 10.484375 -1.65625 C 11.179688 -2.25 11.53125 -3 11.53125 -3.90625 C 11.53125 -5 10.789062 -5.953125 9.3125 -6.765625 L 4.5 -9.953125 C 3.53125 -10.503906 2.835938 -11.171875 2.421875 -11.953125 C 2.003906 -12.742188 1.796875 -13.546875 1.796875 -14.359375 C 1.796875 -16.097656 2.347656 -17.4375 3.453125 -18.375 C 4.554688 -19.320312 5.96875 -19.796875 7.6875 -19.796875 C 8.695312 -19.796875 9.953125 -19.707031 11.453125 -19.53125 L 13.203125 -19.53125 L 12.84375 -15.453125 L 12.5625 -15.453125 C 12.5625 -16.410156 12.203125 -17.179688 11.484375 -17.765625 C 10.773438 -18.347656 9.832031 -18.640625 8.65625 -18.640625 C 7.207031 -18.640625 6.160156 -18.195312 5.515625 -17.3125 C 5.179688 -16.882812 5.015625 -16.398438 5.015625 -15.859375 C 5.015625 -14.972656 5.664062 -14.148438 6.96875 -13.390625 L 12.265625 -9.953125 C 13.921875 -8.992188 14.75 -7.582031 14.75 -5.71875 C 14.75 -3.738281 14.078125 -2.222656 12.734375 -1.171875 C 11.398438 -0.128906 9.625 0.390625 7.40625 0.390625 C 6.144531 0.390625 4.984375 0.238281 3.921875 -0.0625 C 2.859375 -0.375 2.078125 -0.785156 1.578125 -1.296875 C 1.453125 -1.648438 1.390625 -2.078125 1.390625 -2.578125 Z M 1.390625 -2.578125 "/></g></g></g><g fill="#ffffff" fill-opacity="1"><g transform="translate(125.449015, 35.909413)"><g><path d="M 11.34375 -18.28125 L 11.34375 -2 C 11.363281 -1.519531 11.539062 -1.113281 11.875 -0.78125 C 12.21875 -0.445312 12.632812 -0.28125 13.125 -0.28125 L 13.453125 -0.28125 L 13.484375 0 L 5.046875 0 L 5.046875 -0.28125 L 5.40625 -0.28125 C 5.863281 -0.28125 6.265625 -0.445312 6.609375 -0.78125 C 6.953125 -1.113281 7.144531 -1.507812 7.1875 -1.96875 L 7.1875 -18.28125 L 3.4375 -18.28125 C 2.582031 -18.257812 1.90625 -17.988281 1.40625 -17.46875 C 0.914062 -16.957031 0.671875 -16.285156 0.671875 -15.453125 L 0.671875 -15.109375 L 0.390625 -15.109375 L 0.390625 -19.9375 C 0.648438 -19.832031 1.113281 -19.722656 1.78125 -19.609375 C 2.457031 -19.492188 3.082031 -19.4375 3.65625 -19.4375 L 14.84375 -19.4375 C 15.75 -19.457031 16.488281 -19.53125 17.0625 -19.65625 C 17.632812 -19.789062 17.984375 -19.882812 18.109375 -19.9375 L 18.109375 -15.109375 L 17.828125 -15.109375 L 17.828125 -15.453125 C 17.828125 -16.285156 17.578125 -16.957031 17.078125 -17.46875 C 16.578125 -17.988281 15.90625 -18.257812 15.0625 -18.28125 Z M 11.34375 -18.28125 "/></g></g></g><g fill="#ffffff" fill-opacity="1"><g transform="translate(142.725932, 35.909413)"><g><path d="M 1.53125 -0.28125 C 2.007812 -0.28125 2.414062 -0.445312 2.75 -0.78125 C 3.09375 -1.125 3.273438 -1.539062 3.296875 -2.03125 L 3.296875 -17.46875 C 3.242188 -18.113281 2.941406 -18.597656 2.390625 -18.921875 C 2.109375 -19.066406 1.820312 -19.140625 1.53125 -19.140625 L 1.171875 -19.140625 L 1.171875 -19.40625 L 11.78125 -19.40625 C 12.351562 -19.40625 12.984375 -19.460938 13.671875 -19.578125 C 14.359375 -19.691406 14.835938 -19.800781 15.109375 -19.90625 L 15.109375 -15.0625 L 14.84375 -15.0625 L 14.84375 -15.390625 C 14.84375 -16.222656 14.597656 -16.894531 14.109375 -17.40625 C 13.617188 -17.914062 12.957031 -18.1875 12.125 -18.21875 L 7.453125 -18.21875 L 7.453125 -10.15625 L 11.125 -10.15625 C 11.800781 -10.164062 12.363281 -10.394531 12.8125 -10.84375 C 13.257812 -11.300781 13.484375 -11.863281 13.484375 -12.53125 L 13.484375 -12.78125 L 13.75 -12.78125 L 13.75 -6.375 L 13.484375 -6.375 L 13.484375 -6.59375 C 13.484375 -7.519531 13.113281 -8.207031 12.375 -8.65625 C 12 -8.851562 11.59375 -8.960938 11.15625 -8.984375 L 7.453125 -8.984375 L 7.453125 -1.1875 L 11.09375 -1.1875 C 12.445312 -1.1875 13.578125 -1.570312 14.484375 -2.34375 C 15.398438 -3.125 16.082031 -4.226562 16.53125 -5.65625 L 16.8125 -5.65625 L 15.53125 0 L 1.171875 0 L 1.171875 -0.28125 Z M 1.53125 -0.28125 "/></g></g></g><g fill="#ffffff" fill-opacity="1"><g transform="translate(159.032227, 35.909413)"><g><path d="M 8.8125 -18.1875 L 7.625 -18.1875 C 7.59375 -18.1875 7.566406 -18.1875 7.546875 -18.1875 L 7.546875 -2.03125 C 7.566406 -1.34375 7.863281 -0.832031 8.4375 -0.5 C 8.707031 -0.351562 9 -0.28125 9.3125 -0.28125 L 9.671875 -0.28125 L 9.671875 0 L 1.25 0 L 1.25 -0.28125 L 1.609375 -0.28125 C 2.273438 -0.28125 2.785156 -0.566406 3.140625 -1.140625 C 3.285156 -1.398438 3.367188 -1.6875 3.390625 -2 L 3.390625 -17.390625 C 3.367188 -17.867188 3.1875 -18.28125 2.84375 -18.625 C 2.5 -18.96875 2.085938 -19.140625 1.609375 -19.140625 L 1.25 -19.140625 L 1.25 -19.40625 L 10.765625 -19.40625 C 12.554688 -19.40625 14.070312 -19.019531 15.3125 -18.25 C 15.9375 -17.863281 16.429688 -17.320312 16.796875 -16.625 C 17.171875 -15.9375 17.359375 -15.148438 17.359375 -14.265625 C 17.359375 -13.390625 17.207031 -12.582031 16.90625 -11.84375 C 16.601562 -11.101562 16.09375 -10.453125 15.375 -9.890625 C 14.664062 -9.335938 13.8125 -9.007812 12.8125 -8.90625 C 13.882812 -8.550781 14.828125 -7.738281 15.640625 -6.46875 C 17.640625 -3.257812 19.117188 -1.351562 20.078125 -0.75 C 20.554688 -0.457031 21.15625 -0.300781 21.875 -0.28125 L 21.875 0 L 19.171875 0 C 17.597656 0 16.28125 -0.210938 15.21875 -0.640625 C 14.164062 -1.078125 13.304688 -1.828125 12.640625 -2.890625 C 12.304688 -3.421875 11.878906 -4.226562 11.359375 -5.3125 C 10.847656 -6.394531 10.507812 -7.164062 10.34375 -7.625 C 9.84375 -8.738281 9.210938 -9.359375 8.453125 -9.484375 L 8.453125 -9.765625 L 9.3125 -9.765625 C 10.144531 -9.765625 10.878906 -10.015625 11.515625 -10.515625 C 12.160156 -11.015625 12.59375 -11.828125 12.8125 -12.953125 C 12.882812 -13.335938 12.921875 -13.640625 12.921875 -13.859375 C 12.921875 -15.378906 12.613281 -16.476562 12 -17.15625 C 11.394531 -17.832031 10.613281 -18.175781 9.65625 -18.1875 C 9.46875 -18.1875 9.1875 -18.1875 8.8125 -18.1875 Z M 8.8125 -18.1875 "/></g></g></g></svg>