<svg xmlns="http://www.w3.org/2000/svg" xmlns:xlink="http://www.w3.org/1999/xlink" width="300" zoomAndPan="magnify" viewBox="0 0 224.87999 52.499999" height="70" preserveAspectRatio="xMidYMid meet" version="1.0"><defs><g/><clipPath id="54fc964aa4"><path d="M 1 9 L 35 9 L 35 41 L 1 41 Z M 1 9 " clip-rule="nonzero"/></clipPath><clipPath id="82a0475802"><path d="M 202 16 L 223.761719 16 L 223.761719 36 L 202 36 Z M 202 16 " clip-rule="nonzero"/></clipPath></defs><g clip-path="url(#54fc964aa4)"><g fill="#ffffff" fill-opacity="1"><g transform="translate(1.516026, 35.909413)"><g><path d="M 29.953125 -25.90625 C 30.804688 -26.125 31.5 -26.234375 32.03125 -26.234375 C 32.570312 -26.234375 33 -26.21875 33.3125 -26.1875 L 33.3125 -25.90625 C 30.882812 -25.769531 28.941406 -24.660156 27.484375 -22.578125 C 26.722656 -21.503906 26.113281 -20.253906 25.65625 -18.828125 L 20.4375 -2.578125 C 20.125 -1.554688 19.96875 -0.613281 19.96875 0.25 C 19.96875 0.34375 19.96875 0.425781 19.96875 0.5 L 19.6875 0.5 L 13.671875 -12.875 L 8.734375 -1.140625 C 8.234375 0.078125 7.503906 1.257812 6.546875 2.40625 C 5.515625 3.632812 4.257812 4.441406 2.78125 4.828125 C 2.425781 4.929688 2.050781 4.984375 1.65625 4.984375 C 1.269531 4.984375 0.859375 4.921875 0.421875 4.796875 L 0.453125 4.515625 C 1.128906 4.484375 1.785156 4.300781 2.421875 3.96875 C 3.066406 3.632812 3.628906 3.226562 4.109375 2.75 C 4.585938 2.28125 5.050781 1.734375 5.5 1.109375 C 6.21875 0.0859375 6.828125 -1.019531 7.328125 -2.21875 L 1.6875 -17.53125 C 1.445312 -18.0625 1.101562 -18.460938 0.65625 -18.734375 C 0.21875 -19.003906 -0.226562 -19.140625 -0.6875 -19.140625 L -0.90625 -19.140625 L -0.90625 -19.40625 L 7.546875 -19.40625 L 7.546875 -19.140625 L 7.296875 -19.140625 C 6.910156 -19.140625 6.617188 -19.015625 6.421875 -18.765625 C 6.222656 -18.515625 6.125 -18.273438 6.125 -18.046875 C 6.125 -17.828125 6.164062 -17.617188 6.25 -17.421875 L 9.65625 -7.796875 L 14.671875 -19.859375 L 14.921875 -19.828125 L 20.4375 -7.65625 L 23.640625 -18.828125 C 24.097656 -20.441406 24.828125 -21.867188 25.828125 -23.109375 C 26.992188 -24.566406 28.367188 -25.5 29.953125 -25.90625 Z M 29.953125 -25.90625 "/></g></g></g></g><g fill="#ffffff" fill-opacity="1"><g transform="translate(26.946169, 35.909413)"><g><path d="M 1.53125 -0.28125 C 2.007812 -0.28125 2.414062 -0.445312 2.75 -0.78125 C 3.09375 -1.125 3.273438 -1.539062 3.296875 -2.03125 L 3.296875 -17.421875 C 3.273438 -17.898438 3.09375 -18.304688 2.75 -18.640625 C 2.414062 -18.972656 2.007812 -19.140625 1.53125 -19.140625 L 1.171875 -19.140625 L 1.171875 -19.40625 L 9.59375 -19.40625 L 9.5625 -19.140625 L 9.234375 -19.140625 C 8.753906 -19.140625 8.335938 -18.972656 7.984375 -18.640625 C 7.628906 -18.304688 7.453125 -17.898438 7.453125 -17.421875 L 7.453125 -2.03125 C 7.453125 -1.539062 7.628906 -1.125 7.984375 -0.78125 C 8.335938 -0.445312 8.753906 -0.28125 9.234375 -0.28125 L 9.5625 -0.28125 L 9.59375 0 L 1.171875 0 L 1.171875 -0.28125 Z M 1.53125 -0.28125 "/></g></g></g><g fill="#ffffff" fill-opacity="1"><g transform="translate(36.45811, 35.909413)"><g><path d="M 22.65625 -19.140625 C 22.195312 -19.140625 21.800781 -18.976562 21.46875 -18.65625 C 21.132812 -18.332031 20.957031 -17.9375 20.9375 -17.46875 L 20.9375 -3.15625 C 20.9375 -1.914062 21.019531 -0.875 21.1875 -0.03125 L 21.265625 0.390625 L 21.015625 0.390625 L 7.015625 -12.953125 L 7.015625 -1.9375 C 7.015625 -1.476562 7.179688 -1.085938 7.515625 -0.765625 C 7.847656 -0.441406 8.242188 -0.28125 8.703125 -0.28125 L 9.234375 -0.28125 L 9.234375 0 L 0.828125 0 L 0.828125 -0.28125 L 1.328125 -0.28125 C 1.804688 -0.28125 2.210938 -0.441406 2.546875 -0.765625 C 2.878906 -1.085938 3.046875 -1.488281 3.046875 -1.96875 L 3.046875 -16.359375 C 3.046875 -17.578125 2.960938 -18.59375 2.796875 -19.40625 L 2.75 -19.828125 L 3 -19.828125 L 17 -6.484375 L 17 -17.4375 C 16.976562 -17.925781 16.800781 -18.332031 16.46875 -18.65625 C 16.132812 -18.976562 15.738281 -19.140625 15.28125 -19.140625 L 14.78125 -19.140625 L 14.78125 -19.40625 L 23.1875 -19.40625 L 23.1875 -19.140625 Z M 22.65625 -19.140625 "/></g></g></g><g fill="#ffffff" fill-opacity="1"><g transform="translate(59.253703, 35.909413)"><g><path d="M 22.71875 -9.015625 L 22.296875 -9.015625 C 21.847656 -9.015625 21.503906 -8.90625 21.265625 -8.6875 C 21.023438 -8.476562 20.90625 -8.171875 20.90625 -7.765625 L 20.90625 -3.1875 C 20.1875 -2.25 18.992188 -1.414062 17.328125 -0.6875 C 15.671875 0.03125 13.804688 0.390625 11.734375 0.390625 C 8.566406 0.390625 6.023438 -0.519531 4.109375 -2.34375 C 2.203125 -4.164062 1.25 -6.625 1.25 -9.71875 C 1.25 -12.8125 2.203125 -15.265625 4.109375 -17.078125 C 6.023438 -18.890625 8.617188 -19.796875 11.890625 -19.796875 C 13.367188 -19.796875 14.800781 -19.648438 16.1875 -19.359375 C 17.582031 -19.078125 18.703125 -18.722656 19.546875 -18.296875 L 19.609375 -13.53125 L 19.359375 -13.53125 C 18.878906 -15.320312 18.054688 -16.617188 16.890625 -17.421875 C 15.722656 -18.234375 14.335938 -18.640625 12.734375 -18.640625 C 10.492188 -18.640625 8.769531 -17.835938 7.5625 -16.234375 C 6.363281 -14.640625 5.765625 -12.445312 5.765625 -9.65625 C 5.765625 -6.875 6.3125 -4.695312 7.40625 -3.125 C 8.507812 -1.5625 10.070312 -0.78125 12.09375 -0.78125 C 13.550781 -0.78125 14.769531 -1.195312 15.75 -2.03125 C 16.226562 -2.445312 16.582031 -2.941406 16.8125 -3.515625 L 16.8125 -7.765625 C 16.8125 -8.171875 16.6875 -8.476562 16.4375 -8.6875 C 16.1875 -8.90625 15.828125 -9.015625 15.359375 -9.015625 L 14.921875 -9.015625 L 14.921875 -9.296875 L 22.71875 -9.296875 Z M 22.71875 -9.015625 "/></g></g></g><g fill="#ffffff" fill-opacity="1"><g transform="translate(81.245065, 35.909413)"><g><path d="M 12.203125 -19.796875 C 15.617188 -19.796875 18.332031 -18.890625 20.34375 -17.078125 C 22.363281 -15.265625 23.375 -12.804688 23.375 -9.703125 C 23.375 -6.597656 22.363281 -4.140625 20.34375 -2.328125 C 18.332031 -0.515625 15.617188 0.390625 12.203125 0.390625 C 8.785156 0.390625 6.066406 -0.515625 4.046875 -2.328125 C 2.035156 -4.140625 1.03125 -6.597656 1.03125 -9.703125 C 1.03125 -11.753906 1.484375 -13.539062 2.390625 -15.0625 C 3.304688 -16.59375 4.601562 -17.765625 6.28125 -18.578125 C 7.96875 -19.390625 9.941406 -19.796875 12.203125 -19.796875 Z M 7.359375 -3.171875 C 8.554688 -1.578125 10.171875 -0.78125 12.203125 -0.78125 C 14.234375 -0.78125 15.84375 -1.578125 17.03125 -3.171875 C 18.226562 -4.773438 18.828125 -6.953125 18.828125 -9.703125 C 18.828125 -11.515625 18.554688 -13.09375 18.015625 -14.4375 C 17.484375 -15.789062 16.71875 -16.828125 15.71875 -17.546875 C 14.726562 -18.273438 13.554688 -18.640625 12.203125 -18.640625 C 10.171875 -18.640625 8.554688 -17.835938 7.359375 -16.234375 C 6.171875 -14.640625 5.578125 -12.460938 5.578125 -9.703125 C 5.578125 -6.953125 6.171875 -4.773438 7.359375 -3.171875 Z M 7.359375 -3.171875 "/></g></g></g><g fill="#ffffff" fill-opacity="1"><g transform="translate(104.428909, 35.909413)"><g/></g></g><g fill="#ffffff" fill-opacity="1"><g transform="translate(110.169286, 35.909413)"><g><path d="M 15.703125 -14.640625 C 15.703125 -13.773438 15.484375 -13 15.046875 -12.3125 C 14.609375 -11.625 14.050781 -11.15625 13.375 -10.90625 C 15.519531 -10.789062 17.082031 -9.945312 18.0625 -8.375 C 18.5625 -7.582031 18.8125 -6.601562 18.8125 -5.4375 C 18.8125 -4.269531 18.359375 -3.203125 17.453125 -2.234375 C 16.554688 -1.273438 15.414062 -0.59375 14.03125 -0.1875 C 12.644531 0.21875 11.1875 0.421875 9.65625 0.421875 C 5.820312 0.421875 3.085938 -0.597656 1.453125 -2.640625 C 0.390625 -3.929688 -0.140625 -5.675781 -0.140625 -7.875 C -0.140625 -8.25 -0.117188 -8.617188 -0.078125 -8.984375 L 0.203125 -9.015625 C 0.328125 -5.835938 1.460938 -3.5625 3.609375 -2.1875 L 3.609375 -17.421875 C 3.585938 -18.097656 3.28125 -18.597656 2.6875 -18.921875 C 2.4375 -19.066406 2.148438 -19.140625 1.828125 -19.140625 L 1.46875 -19.140625 L 1.46875 -19.40625 L 8.515625 -19.40625 C 10.566406 -19.40625 12.273438 -18.992188 13.640625 -18.171875 C 15.015625 -17.359375 15.703125 -16.179688 15.703125 -14.640625 Z M 8.546875 -0.890625 C 10.265625 -0.890625 11.609375 -1.34375 12.578125 -2.25 C 13.546875 -3.15625 14.03125 -4.347656 14.03125 -5.828125 C 14.03125 -6.742188 13.859375 -7.519531 13.515625 -8.15625 C 13.179688 -8.800781 12.734375 -9.28125 12.171875 -9.59375 C 11.160156 -10.207031 10.007812 -10.515625 8.71875 -10.515625 L 8.71875 -10.765625 C 9.300781 -10.765625 9.796875 -10.976562 10.203125 -11.40625 C 10.910156 -12.144531 11.265625 -13.148438 11.265625 -14.421875 C 11.265625 -15.691406 10.984375 -16.632812 10.421875 -17.25 C 9.859375 -17.863281 8.972656 -18.1875 7.765625 -18.21875 L 7.765625 -0.921875 C 8.023438 -0.898438 8.285156 -0.890625 8.546875 -0.890625 Z M 8.546875 -0.890625 "/></g></g></g><g fill="#ffffff" fill-opacity="1"><g transform="translate(128.139509, 35.909413)"><g><path d="M 20.46875 -0.28125 L 20.71875 -0.28125 L 20.71875 0 L 11.875 0 L 11.875 -0.28125 L 12.125 -0.28125 C 12.53125 -0.28125 12.828125 -0.40625 13.015625 -0.65625 C 13.210938 -0.90625 13.3125 -1.140625 13.3125 -1.359375 C 13.3125 -1.578125 13.265625 -1.800781 13.171875 -2.03125 L 11.8125 -5.4375 L 5.328125 -5.4375 L 3.890625 -2.03125 C 3.796875 -1.78125 3.75 -1.550781 3.75 -1.34375 C 3.75 -1.132812 3.84375 -0.90625 4.03125 -0.65625 C 4.226562 -0.40625 4.539062 -0.28125 4.96875 -0.28125 L 5.1875 -0.28125 L 5.1875 0 L -0.75 0 L -0.75 -0.28125 L -0.5 -0.28125 C -0.0703125 -0.28125 0.351562 -0.40625 0.78125 -0.65625 C 1.207031 -0.914062 1.554688 -1.304688 1.828125 -1.828125 L 8.234375 -16.328125 C 9.109375 -18.160156 9.570312 -19.375 9.625 -19.96875 L 9.875 -19.96875 L 18.109375 -1.890625 C 18.390625 -1.347656 18.742188 -0.941406 19.171875 -0.671875 C 19.597656 -0.410156 20.03125 -0.28125 20.46875 -0.28125 Z M 5.796875 -6.59375 L 11.34375 -6.59375 L 8.65625 -13.421875 Z M 5.796875 -6.59375 "/></g></g></g><g fill="#ffffff" fill-opacity="1"><g transform="translate(146.803027, 35.909413)"><g><path d="M 1.640625 -19.9375 C 1.910156 -19.832031 2.390625 -19.722656 3.078125 -19.609375 C 3.773438 -19.492188 4.265625 -19.4375 4.546875 -19.4375 C 4.835938 -19.4375 4.984375 -19.4375 4.984375 -19.4375 L 13.84375 -19.4375 C 14.75 -19.4375 15.441406 -19.488281 15.921875 -19.59375 C 16.398438 -19.695312 16.675781 -19.765625 16.75 -19.796875 L 16.75 -19.546875 L 6.484375 -1.171875 L 12.3125 -1.171875 C 13.5 -1.171875 14.53125 -1.566406 15.40625 -2.359375 C 16.28125 -3.148438 16.90625 -4.222656 17.28125 -5.578125 L 17.5625 -5.578125 L 16.5625 0 L 1.25 0 L 1.25 -0.25 L 11.421875 -18.28125 L 4.71875 -18.28125 C 3.863281 -18.257812 3.179688 -17.992188 2.671875 -17.484375 C 2.160156 -16.972656 1.90625 -16.296875 1.90625 -15.453125 L 1.90625 -15.109375 L 1.640625 -15.109375 Z M 1.640625 -19.9375 "/></g></g></g><g fill="#ffffff" fill-opacity="1"><g transform="translate(163.913551, 35.909413)"><g><path d="M 20.46875 -0.28125 L 20.71875 -0.28125 L 20.71875 0 L 11.875 0 L 11.875 -0.28125 L 12.125 -0.28125 C 12.53125 -0.28125 12.828125 -0.40625 13.015625 -0.65625 C 13.210938 -0.90625 13.3125 -1.140625 13.3125 -1.359375 C 13.3125 -1.578125 13.265625 -1.800781 13.171875 -2.03125 L 11.8125 -5.4375 L 5.328125 -5.4375 L 3.890625 -2.03125 C 3.796875 -1.78125 3.75 -1.550781 3.75 -1.34375 C 3.75 -1.132812 3.84375 -0.90625 4.03125 -0.65625 C 4.226562 -0.40625 4.539062 -0.28125 4.96875 -0.28125 L 5.1875 -0.28125 L 5.1875 0 L -0.75 0 L -0.75 -0.28125 L -0.5 -0.28125 C -0.0703125 -0.28125 0.351562 -0.40625 0.78125 -0.65625 C 1.207031 -0.914062 1.554688 -1.304688 1.828125 -1.828125 L 8.234375 -16.328125 C 9.109375 -18.160156 9.570312 -19.375 9.625 -19.96875 L 9.875 -19.96875 L 18.109375 -1.890625 C 18.390625 -1.347656 18.742188 -0.941406 19.171875 -0.671875 C 19.597656 -0.410156 20.03125 -0.28125 20.46875 -0.28125 Z M 5.796875 -6.59375 L 11.34375 -6.59375 L 8.65625 -13.421875 Z M 5.796875 -6.59375 "/></g></g></g><g fill="#ffffff" fill-opacity="1"><g transform="translate(182.577069, 35.909413)"><g><path d="M 20.46875 -0.28125 L 20.71875 -0.28125 L 20.71875 0 L 11.875 0 L 11.875 -0.28125 L 12.125 -0.28125 C 12.53125 -0.28125 12.828125 -0.40625 13.015625 -0.65625 C 13.210938 -0.90625 13.3125 -1.140625 13.3125 -1.359375 C 13.3125 -1.578125 13.265625 -1.800781 13.171875 -2.03125 L 11.8125 -5.4375 L 5.328125 -5.4375 L 3.890625 -2.03125 C 3.796875 -1.78125 3.75 -1.550781 3.75 -1.34375 C 3.75 -1.132812 3.84375 -0.90625 4.03125 -0.65625 C 4.226562 -0.40625 4.539062 -0.28125 4.96875 -0.28125 L 5.1875 -0.28125 L 5.1875 0 L -0.75 0 L -0.75 -0.28125 L -0.5 -0.28125 C -0.0703125 -0.28125 0.351562 -0.40625 0.78125 -0.65625 C 1.207031 -0.914062 1.554688 -1.304688 1.828125 -1.828125 L 8.234375 -16.328125 C 9.109375 -18.160156 9.570312 -19.375 9.625 -19.96875 L 9.875 -19.96875 L 18.109375 -1.890625 C 18.390625 -1.347656 18.742188 -0.941406 19.171875 -0.671875 C 19.597656 -0.410156 20.03125 -0.28125 20.46875 -0.28125 Z M 5.796875 -6.59375 L 11.34375 -6.59375 L 8.65625 -13.421875 Z M 5.796875 -6.59375 "/></g></g></g><g clip-path="url(#82a0475802)"><g fill="#ffffff" fill-opacity="1"><g transform="translate(201.240598, 35.909413)"><g><path d="M 8.8125 -18.1875 L 7.625 -18.1875 C 7.59375 -18.1875 7.566406 -18.1875 7.546875 -18.1875 L 7.546875 -2.03125 C 7.566406 -1.34375 7.863281 -0.832031 8.4375 -0.5 C 8.707031 -0.351562 9 -0.28125 9.3125 -0.28125 L 9.671875 -0.28125 L 9.671875 0 L 1.25 0 L 1.25 -0.28125 L 1.609375 -0.28125 C 2.273438 -0.28125 2.785156 -0.566406 3.140625 -1.140625 C 3.285156 -1.398438 3.367188 -1.6875 3.390625 -2 L 3.390625 -17.390625 C 3.367188 -17.867188 3.1875 -18.28125 2.84375 -18.625 C 2.5 -18.96875 2.085938 -19.140625 1.609375 -19.140625 L 1.25 -19.140625 L 1.25 -19.40625 L 10.765625 -19.40625 C 12.554688 -19.40625 14.070312 -19.019531 15.3125 -18.25 C 15.9375 -17.863281 16.429688 -17.320312 16.796875 -16.625 C 17.171875 -15.9375 17.359375 -15.148438 17.359375 -14.265625 C 17.359375 -13.390625 17.207031 -12.582031 16.90625 -11.84375 C 16.601562 -11.101562 16.09375 -10.453125 15.375 -9.890625 C 14.664062 -9.335938 13.8125 -9.007812 12.8125 -8.90625 C 13.882812 -8.550781 14.828125 -7.738281 15.640625 -6.46875 C 17.640625 -3.257812 19.117188 -1.351562 20.078125 -0.75 C 20.554688 -0.457031 21.15625 -0.300781 21.875 -0.28125 L 21.875 0 L 19.171875 0 C 17.597656 0 16.28125 -0.210938 15.21875 -0.640625 C 14.164062 -1.078125 13.304688 -1.828125 12.640625 -2.890625 C 12.304688 -3.421875 11.878906 -4.226562 11.359375 -5.3125 C 10.847656 -6.394531 10.507812 -7.164062 10.34375 -7.625 C 9.84375 -8.738281 9.210938 -9.359375 8.453125 -9.484375 L 8.453125 -9.765625 L 9.3125 -9.765625 C 10.144531 -9.765625 10.878906 -10.015625 11.515625 -10.515625 C 12.160156 -11.015625 12.59375 -11.828125 12.8125 -12.953125 C 12.882812 -13.335938 12.921875 -13.640625 12.921875 -13.859375 C 12.921875 -15.378906 12.613281 -16.476562 12 -17.15625 C 11.394531 -17.832031 10.613281 -18.175781 9.65625 -18.1875 C 9.46875 -18.1875 9.1875 -18.1875 8.8125 -18.1875 Z M 8.8125 -18.1875 "/></g></g></g></g></svg>