<svg xmlns="http://www.w3.org/2000/svg" xmlns:xlink="http://www.w3.org/1999/xlink" width="83" zoomAndPan="magnify" viewBox="0 0 62.25 62.249997" height="83" preserveAspectRatio="xMidYMid meet" version="1.0"><defs><clipPath id="32da41f714"><path d="M 24.894531 13 L 48.539062 13 L 48.539062 41.253906 L 24.894531 41.253906 Z M 24.894531 13 " clip-rule="nonzero"/></clipPath><clipPath id="de37fefbfa"><path d="M 36.71875 41.253906 C 43.246094 41.253906 48.539062 34.9375 48.539062 27.148438 C 48.539062 19.359375 43.246094 13.046875 36.71875 13.046875 C 30.1875 13.046875 24.894531 19.359375 24.894531 27.148438 C 24.894531 34.9375 30.1875 41.253906 36.71875 41.253906 Z M 36.71875 41.253906 " clip-rule="nonzero"/></clipPath><clipPath id="0af06f3a84"><path d="M 7 0.964844 L 31 0.964844 L 31 25 L 7 25 Z M 7 0.964844 " clip-rule="nonzero"/></clipPath><clipPath id="faae77b20a"><path d="M 20 36 L 61.507812 36 L 61.507812 60.25 L 20 60.25 Z M 20 36 " clip-rule="nonzero"/></clipPath><clipPath id="e2b7fecc0e"><path d="M 1 34 L 24 34 L 24 60.25 L 1 60.25 Z M 1 34 " clip-rule="nonzero"/></clipPath></defs><g clip-path="url(#32da41f714)"><g clip-path="url(#de37fefbfa)"><path fill="#d9d9d9" d="M 48.539062 41.253906 L 24.894531 41.253906 L 24.894531 13.078125 L 48.539062 13.078125 Z M 48.539062 41.253906 " fill-opacity="1" fill-rule="nonzero"/></g></g><g clip-path="url(#0af06f3a84)"><path fill="#545454" d="M 20.574219 24.761719 C 20.46875 24.769531 20.3125 24.777344 20.105469 24.785156 C 19.878906 24.792969 19.722656 24.796875 19.632812 24.796875 C 16.347656 24.796875 13.367188 23.460938 11.210938 21.304688 C 9.054688 19.148438 7.714844 16.167969 7.714844 12.882812 C 7.714844 9.597656 9.054688 6.621094 11.210938 4.460938 C 13.371094 2.300781 16.347656 0.960938 19.632812 0.960938 C 21.9375 0.960938 24.097656 1.621094 25.925781 2.765625 C 27.8125 3.945312 29.347656 5.636719 30.332031 7.652344 L 28.050781 8.769531 C 27.277344 7.191406 26.066406 5.859375 24.578125 4.929688 C 23.144531 4.035156 21.449219 3.515625 19.632812 3.515625 C 17.046875 3.515625 14.707031 4.5625 13.015625 6.257812 C 11.320312 7.953125 10.269531 10.296875 10.269531 12.882812 C 10.269531 15.464844 11.320312 17.804688 13.015625 19.5 C 14.710938 21.195312 17.050781 22.246094 19.632812 22.246094 C 19.824219 22.246094 19.949219 22.246094 20.003906 22.242188 C 20.078125 22.238281 20.203125 22.230469 20.375 22.21875 L 20.574219 24.761719 " fill-opacity="1" fill-rule="nonzero"/></g><path fill="#545454" d="M 22.347656 29.101562 C 21.828125 29.234375 21.296875 29.335938 20.753906 29.402344 C 20.21875 29.46875 19.679688 29.503906 19.136719 29.503906 C 17.347656 29.503906 15.621094 29.144531 14.027344 28.457031 C 12.625 27.855469 11.324219 26.996094 10.183594 25.90625 C 8.21875 27.144531 6.574219 28.777344 5.308594 30.726562 C 3.925781 32.851562 2.984375 35.367188 2.554688 38.167969 L 2.550781 38.171875 L 2.515625 38.386719 L 0.00390625 38 L 0.0351562 37.789062 L 0.03125 37.785156 C 0.515625 34.628906 1.589844 31.773438 3.175781 29.339844 C 4.769531 26.886719 6.875 24.867188 9.417969 23.394531 L 9.429688 23.390625 L 9.769531 23.199219 L 10.632812 22.707031 L 11.320312 23.425781 L 11.585938 23.707031 C 12.582031 24.75 13.753906 25.5625 15.035156 26.113281 C 16.308594 26.664062 17.695312 26.949219 19.136719 26.949219 C 19.578125 26.949219 20.015625 26.921875 20.445312 26.871094 C 20.875 26.816406 21.300781 26.734375 21.71875 26.628906 L 22.347656 29.101562 " fill-opacity="1" fill-rule="nonzero"/><path fill="#545454" d="M 37.519531 38.300781 C 33.445312 38.300781 29.753906 36.644531 27.078125 33.96875 C 24.402344 31.292969 22.746094 27.597656 22.746094 23.523438 C 22.746094 19.453125 24.402344 15.757812 27.078125 13.082031 C 29.753906 10.402344 33.449219 8.746094 37.519531 8.746094 C 41.59375 8.746094 45.289062 10.402344 47.964844 13.078125 C 50.636719 15.75 52.296875 19.445312 52.296875 23.519531 C 52.296875 27.589844 50.636719 31.285156 47.960938 33.960938 C 45.285156 36.640625 41.589844 38.300781 37.519531 38.300781 Z M 28.882812 32.164062 C 31.097656 34.375 34.152344 35.746094 37.519531 35.746094 C 40.890625 35.746094 43.949219 34.378906 46.15625 32.164062 C 48.371094 29.949219 49.742188 26.890625 49.742188 23.519531 C 49.742188 20.148438 48.371094 17.09375 46.160156 14.882812 C 43.945312 12.667969 40.890625 11.296875 37.519531 11.296875 C 34.148438 11.296875 31.09375 12.667969 28.882812 14.878906 C 26.671875 17.089844 25.300781 20.148438 25.300781 23.523438 C 25.300781 26.894531 26.671875 29.949219 28.882812 32.164062 " fill-opacity="1" fill-rule="nonzero"/><g clip-path="url(#faae77b20a)"><path fill="#545454" d="M 26.679688 57.917969 L 58.78125 57.917969 C 58.808594 53.984375 58.089844 50.355469 56.453125 47.179688 C 54.855469 44.082031 52.367188 41.394531 48.828125 39.257812 C 47.367188 40.699219 45.6875 41.828125 43.867188 42.609375 C 41.886719 43.460938 39.738281 43.910156 37.519531 43.910156 C 35.300781 43.910156 33.15625 43.460938 31.175781 42.609375 C 29.351562 41.828125 27.671875 40.699219 26.210938 39.257812 C 25.539062 39.664062 24.910156 40.085938 24.316406 40.527344 C 23.59375 41.066406 22.921875 41.632812 22.300781 42.230469 L 20.535156 40.394531 C 21.230469 39.726562 21.984375 39.089844 22.804688 38.480469 C 23.601562 37.886719 24.457031 37.324219 25.363281 36.800781 L 25.375 36.792969 L 25.804688 36.550781 L 26.667969 36.058594 L 27.355469 36.777344 L 27.695312 37.132812 C 28.992188 38.492188 30.515625 39.550781 32.183594 40.265625 C 33.84375 40.980469 35.648438 41.355469 37.519531 41.355469 C 39.390625 41.355469 41.199219 40.980469 42.859375 40.265625 C 44.527344 39.550781 46.050781 38.492188 47.347656 37.132812 L 47.359375 37.125 L 48.390625 36.058594 L 49.253906 36.554688 L 49.675781 36.800781 C 53.886719 39.230469 56.832031 42.363281 58.714844 46.011719 C 60.738281 49.929688 61.511719 54.414062 61.292969 59.246094 L 61.238281 60.46875 L 26.679688 60.46875 L 26.679688 57.917969 " fill-opacity="1" fill-rule="nonzero"/></g><g clip-path="url(#e2b7fecc0e)"><path fill="#545454" d="M 11.683594 37.996094 L 5.519531 43.882812 L 8.773438 43.882812 L 8.9375 44.972656 C 9.492188 48.695312 11.042969 51.445312 13.132812 53.445312 C 14.421875 54.675781 15.921875 55.636719 17.53125 56.367188 C 16.964844 55.601562 16.472656 54.789062 16.054688 53.925781 C 14.851562 51.429688 14.277344 48.539062 14.277344 45.160156 L 14.277344 43.882812 L 17.839844 43.882812 Z M 1.460938 44.234375 L 10.804688 35.3125 L 11.683594 34.472656 L 12.5625 35.3125 L 21.898438 44.234375 L 21.019531 46.433594 L 16.863281 46.433594 C 16.984375 48.882812 17.46875 50.996094 18.351562 52.816406 C 19.367188 54.921875 20.925781 56.675781 23.074219 58.140625 L 22.117188 60.445312 C 18.242188 59.703125 14.355469 58.136719 11.378906 55.289062 C 9.109375 53.121094 7.382812 50.234375 6.605469 46.433594 L 2.339844 46.433594 L 1.460938 44.234375 " fill-opacity="1" fill-rule="nonzero"/></g></svg>