<svg xmlns="http://www.w3.org/2000/svg" xmlns:xlink="http://www.w3.org/1999/xlink" width="100" zoomAndPan="magnify" viewBox="0 0 75 74.999997" height="100" preserveAspectRatio="xMidYMid meet" version="1.0"><defs><clipPath id="c95c831d6b"><path d="M 12.664062 14.679688 L 63.125 14.679688 L 63.125 74.996094 L 12.664062 74.996094 Z M 12.664062 14.679688 " clip-rule="nonzero"/></clipPath><clipPath id="9fdd6582c1"><path d="M 37.894531 74.996094 C 51.828125 74.996094 63.125 61.519531 63.125 44.898438 C 63.125 28.277344 51.828125 14.804688 37.894531 14.804688 C 23.960938 14.804688 12.664062 28.277344 12.664062 44.898438 C 12.664062 61.519531 23.960938 74.996094 37.894531 74.996094 Z M 37.894531 74.996094 " clip-rule="nonzero"/></clipPath><clipPath id="c2d44be72e"><path d="M 9 4.136719 L 37 4.136719 L 37 34 L 9 34 Z M 9 4.136719 " clip-rule="nonzero"/></clipPath></defs><g clip-path="url(#c95c831d6b)"><g clip-path="url(#9fdd6582c1)"><path fill="#f18b8b" d="M 63.125 74.996094 L 12.664062 74.996094 L 12.664062 14.875 L 63.125 14.875 Z M 63.125 74.996094 " fill-opacity="1" fill-rule="nonzero"/></g></g><g clip-path="url(#c2d44be72e)"><path fill="#ff3131" d="M 25.085938 33.15625 C 24.957031 33.164062 24.765625 33.175781 24.511719 33.1875 C 24.238281 33.195312 24.046875 33.203125 23.9375 33.203125 C 19.929688 33.203125 16.296875 31.570312 13.667969 28.941406 C 11.035156 26.308594 9.40625 22.675781 9.40625 18.671875 C 9.40625 14.664062 11.035156 11.035156 13.667969 8.402344 C 16.300781 5.765625 19.933594 4.132812 23.9375 4.132812 C 26.75 4.132812 29.382812 4.941406 31.613281 6.332031 C 33.910156 7.769531 35.785156 9.835938 36.988281 12.292969 L 34.203125 13.65625 C 33.257812 11.730469 31.785156 10.105469 29.96875 8.972656 C 28.222656 7.878906 26.152344 7.246094 23.9375 7.246094 C 20.785156 7.246094 17.933594 8.527344 15.867188 10.589844 C 13.800781 12.660156 12.519531 15.515625 12.519531 18.671875 C 12.519531 21.816406 13.800781 24.671875 15.867188 26.738281 C 17.9375 28.808594 20.789062 30.089844 23.9375 30.089844 C 24.171875 30.089844 24.324219 30.085938 24.390625 30.085938 C 24.484375 30.082031 24.632812 30.070312 24.84375 30.054688 L 25.085938 33.15625 " fill-opacity="1" fill-rule="nonzero"/></g><path fill="#ff3131" d="M 27.25 38.449219 C 26.613281 38.609375 25.964844 38.734375 25.304688 38.816406 C 24.652344 38.898438 23.996094 38.9375 23.332031 38.9375 C 21.152344 38.9375 19.046875 38.5 17.101562 37.664062 C 15.390625 36.929688 13.808594 35.882812 12.417969 34.554688 C 10.019531 36.0625 8.015625 38.050781 6.46875 40.429688 C 4.785156 43.023438 3.636719 46.089844 3.113281 49.503906 L 3.109375 49.507812 L 3.066406 49.773438 L 0.00390625 49.296875 L 0.0429688 49.039062 L 0.0351562 49.039062 C 0.628906 45.191406 1.9375 41.710938 3.867188 38.738281 C 5.8125 35.746094 8.382812 33.285156 11.480469 31.492188 L 11.496094 31.484375 L 11.910156 31.25 L 12.964844 30.648438 L 13.800781 31.527344 L 14.125 31.871094 C 15.339844 33.144531 16.765625 34.132812 18.332031 34.804688 C 19.886719 35.472656 21.578125 35.824219 23.332031 35.824219 C 23.871094 35.824219 24.40625 35.792969 24.929688 35.726562 C 25.453125 35.660156 25.972656 35.5625 26.484375 35.433594 L 27.25 38.449219 " fill-opacity="1" fill-rule="nonzero"/><path fill="#ff3131" d="M 45.75 49.664062 C 40.78125 49.664062 36.277344 47.644531 33.015625 44.382812 C 29.753906 41.121094 27.734375 36.617188 27.734375 31.648438 C 27.734375 26.679688 29.753906 22.179688 33.015625 18.914062 C 36.28125 15.648438 40.785156 13.625 45.75 13.625 C 50.71875 13.625 55.222656 15.644531 58.484375 18.90625 C 61.746094 22.167969 63.765625 26.671875 63.765625 31.640625 C 63.765625 36.605469 61.746094 41.109375 58.484375 44.375 C 55.21875 47.640625 50.714844 49.664062 45.75 49.664062 Z M 35.21875 42.183594 C 37.917969 44.878906 41.640625 46.550781 45.75 46.550781 C 49.863281 46.550781 53.585938 44.882812 56.28125 42.183594 C 58.980469 39.484375 60.652344 35.753906 60.652344 31.640625 C 60.652344 27.53125 58.984375 23.808594 56.285156 21.109375 C 53.585938 18.410156 49.859375 16.738281 45.75 16.738281 C 41.636719 16.738281 37.914062 18.40625 35.214844 21.105469 C 32.519531 23.804688 30.847656 27.53125 30.847656 31.648438 C 30.847656 35.757812 32.519531 39.484375 35.21875 42.183594 " fill-opacity="1" fill-rule="nonzero"/><path fill="#ff3131" d="M 32.53125 73.585938 L 71.675781 73.585938 C 71.710938 68.792969 70.832031 64.363281 68.835938 60.492188 C 66.886719 56.714844 63.855469 53.4375 59.542969 50.832031 C 57.757812 52.589844 55.710938 53.964844 53.488281 54.921875 C 51.074219 55.960938 48.457031 56.503906 45.75 56.503906 C 43.042969 56.503906 40.425781 55.960938 38.011719 54.921875 C 35.789062 53.964844 33.742188 52.589844 31.960938 50.832031 C 31.140625 51.328125 30.371094 51.84375 29.652344 52.378906 C 28.769531 53.035156 27.949219 53.730469 27.191406 54.457031 L 25.039062 52.222656 C 25.886719 51.40625 26.804688 50.628906 27.804688 49.886719 C 28.777344 49.160156 29.820312 48.476562 30.929688 47.835938 L 30.941406 47.828125 L 31.464844 47.53125 L 32.519531 46.929688 L 33.355469 47.808594 L 33.769531 48.242188 C 35.351562 49.902344 37.207031 51.191406 39.242188 52.0625 C 41.265625 52.933594 43.46875 53.390625 45.75 53.390625 C 48.03125 53.390625 50.234375 52.933594 52.261719 52.0625 C 54.292969 51.191406 56.152344 49.902344 57.734375 48.242188 L 57.746094 48.230469 L 58.164062 47.796875 L 59.007812 46.929688 L 60.058594 47.535156 L 60.574219 47.835938 C 65.707031 50.800781 69.300781 54.621094 71.597656 59.070312 C 74.0625 63.847656 75.003906 69.316406 74.738281 75.210938 L 74.671875 76.699219 L 32.53125 76.699219 L 32.53125 73.585938 " fill-opacity="1" fill-rule="nonzero"/><path fill="#ff3131" d="M 14.242188 49.292969 L 6.726562 56.472656 L 10.695312 56.472656 L 10.894531 57.804688 C 11.574219 62.34375 13.460938 65.695312 16.011719 68.132812 C 17.582031 69.636719 19.414062 70.804688 21.375 71.699219 C 20.683594 70.765625 20.085938 69.773438 19.578125 68.71875 C 18.109375 65.675781 17.40625 62.148438 17.40625 58.027344 L 17.40625 56.472656 L 21.753906 56.472656 Z M 1.78125 56.902344 L 13.175781 46.019531 L 14.246094 44.996094 L 15.316406 46.019531 L 26.699219 56.902344 L 25.628906 59.585938 L 20.558594 59.585938 C 20.707031 62.570312 21.300781 65.148438 22.375 67.367188 C 23.613281 69.9375 25.515625 72.070312 28.132812 73.859375 L 26.964844 76.667969 C 22.242188 75.765625 17.503906 73.855469 13.871094 70.382812 C 11.105469 67.738281 9 64.214844 8.054688 59.585938 L 2.851562 59.585938 L 1.78125 56.902344 " fill-opacity="1" fill-rule="nonzero"/></svg>