<svg xmlns="http://www.w3.org/2000/svg" xmlns:xlink="http://www.w3.org/1999/xlink" width="100" zoomAndPan="magnify" viewBox="0 0 75 74.999997" height="100" preserveAspectRatio="xMidYMid meet" version="1.0"><defs><clipPath id="3d8ae0d4f6"><path d="M 13.503906 10.699219 L 61.476562 10.699219 L 61.476562 71.976562 L 13.503906 71.976562 Z M 13.503906 10.699219 " clip-rule="nonzero"/></clipPath><clipPath id="16a0a4fc3b"><path d="M 37.488281 71.976562 C 50.738281 71.976562 61.476562 58.28125 61.476562 41.378906 C 61.476562 24.480469 50.738281 10.785156 37.488281 10.785156 C 24.242188 10.785156 13.503906 24.480469 13.503906 41.378906 C 13.503906 58.28125 24.242188 71.976562 37.488281 71.976562 Z M 37.488281 71.976562 " clip-rule="nonzero"/></clipPath><clipPath id="94294ef92c"><path d="M 0.800781 25 L 28 25 L 28 45 L 0.800781 45 Z M 0.800781 25 " clip-rule="nonzero"/></clipPath><clipPath id="24b8ad80b4"><path d="M 25 41 L 74 41 L 74 71.25 L 25 71.25 Z M 25 41 " clip-rule="nonzero"/></clipPath></defs><g clip-path="url(#3d8ae0d4f6)"><g clip-path="url(#16a0a4fc3b)"><path fill="#d9d9d9" d="M 61.476562 71.976562 L 13.503906 71.976562 L 13.503906 10.699219 L 61.476562 10.699219 Z M 61.476562 71.976562 " fill-opacity="1" fill-rule="nonzero"/></g></g><path fill="#545454" d="M 25.351562 28.394531 C 25.222656 28.40625 25.035156 28.414062 24.789062 28.425781 C 24.523438 28.4375 24.335938 28.441406 24.226562 28.441406 C 20.304688 28.441406 16.75 26.847656 14.175781 24.273438 C 11.601562 21.699219 10.007812 18.140625 10.007812 14.222656 C 10.007812 10.300781 11.601562 6.75 14.175781 4.175781 C 16.753906 1.59375 20.308594 -0.00390625 24.226562 -0.00390625 C 26.976562 -0.00390625 29.554688 0.785156 31.734375 2.148438 C 33.984375 3.554688 35.816406 5.578125 36.996094 7.980469 L 34.269531 9.3125 C 33.347656 7.429688 31.90625 5.839844 30.128906 4.730469 C 28.417969 3.664062 26.394531 3.042969 24.226562 3.042969 C 21.140625 3.042969 18.347656 4.296875 16.328125 6.316406 C 14.308594 8.339844 13.054688 11.136719 13.054688 14.222656 C 13.054688 17.300781 14.308594 20.09375 16.332031 22.117188 C 18.351562 24.140625 21.144531 25.394531 24.226562 25.394531 C 24.457031 25.394531 24.601562 25.394531 24.671875 25.390625 C 24.757812 25.386719 24.90625 25.378906 25.113281 25.363281 L 25.351562 28.394531 " fill-opacity="1" fill-rule="nonzero"/><g clip-path="url(#94294ef92c)"><path fill="#545454" d="M 27.464844 33.574219 C 26.84375 33.734375 26.210938 33.855469 25.566406 33.933594 C 24.925781 34.015625 24.28125 34.054688 23.632812 34.054688 C 21.5 34.054688 19.4375 33.625 17.539062 32.808594 C 15.863281 32.085938 14.3125 31.0625 12.953125 29.761719 C 10.605469 31.238281 8.644531 33.1875 7.132812 35.511719 C 5.484375 38.050781 4.363281 41.050781 3.847656 44.390625 L 3.84375 44.398438 L 3.804688 44.65625 L 0.804688 44.191406 L 0.84375 43.941406 L 0.839844 43.9375 C 1.417969 40.171875 2.695312 36.765625 4.585938 33.859375 C 6.492188 30.929688 9.003906 28.519531 12.039062 26.765625 L 12.050781 26.761719 L 12.453125 26.53125 L 13.488281 25.945312 L 14.304688 26.804688 L 14.625 27.136719 C 15.8125 28.382812 17.210938 29.355469 18.738281 30.011719 C 20.261719 30.664062 21.914062 31.007812 23.632812 31.007812 C 24.164062 31.007812 24.683594 30.976562 25.195312 30.910156 C 25.710938 30.847656 26.21875 30.753906 26.714844 30.625 L 27.464844 33.574219 " fill-opacity="1" fill-rule="nonzero"/></g><path fill="#545454" d="M 45.570312 44.550781 C 40.710938 44.550781 36.300781 42.574219 33.109375 39.382812 C 29.917969 36.1875 27.941406 31.78125 27.941406 26.921875 C 27.941406 22.0625 29.917969 17.652344 33.109375 14.460938 C 36.304688 11.265625 40.714844 9.285156 45.570312 9.285156 C 50.429688 9.285156 54.839844 11.261719 58.03125 14.453125 C 61.222656 17.644531 63.199219 22.050781 63.199219 26.914062 C 63.199219 31.769531 61.222656 36.179688 58.03125 39.375 C 54.835938 42.570312 50.425781 44.550781 45.570312 44.550781 Z M 35.261719 37.226562 C 37.90625 39.867188 41.550781 41.503906 45.570312 41.503906 C 49.59375 41.503906 53.238281 39.871094 55.875 37.230469 C 58.519531 34.589844 60.152344 30.9375 60.152344 26.914062 C 60.152344 22.894531 58.519531 19.246094 55.878906 16.609375 C 53.234375 13.96875 49.589844 12.332031 45.570312 12.332031 C 41.546875 12.332031 37.902344 13.964844 35.261719 16.605469 C 32.625 19.246094 30.988281 22.894531 30.988281 26.921875 C 30.988281 30.941406 32.625 34.585938 35.261719 37.226562 " fill-opacity="1" fill-rule="nonzero"/><g clip-path="url(#24b8ad80b4)"><path fill="#545454" d="M 32.632812 67.957031 L 70.9375 67.957031 C 70.972656 63.265625 70.113281 58.933594 68.160156 55.144531 C 66.253906 51.449219 63.285156 48.242188 59.066406 45.691406 C 57.320312 47.414062 55.316406 48.757812 53.140625 49.695312 C 50.78125 50.710938 48.21875 51.246094 45.570312 51.246094 C 42.921875 51.246094 40.363281 50.710938 38 49.695312 C 35.824219 48.757812 33.820312 47.414062 32.078125 45.691406 C 31.273438 46.175781 30.523438 46.683594 29.816406 47.207031 C 28.953125 47.851562 28.152344 48.53125 27.410156 49.242188 L 25.300781 47.050781 C 26.132812 46.253906 27.03125 45.492188 28.007812 44.765625 C 28.964844 44.058594 29.980469 43.386719 31.066406 42.761719 L 31.078125 42.753906 L 31.589844 42.460938 L 32.621094 41.875 L 33.441406 42.734375 L 33.84375 43.160156 C 35.394531 44.78125 37.210938 46.042969 39.203125 46.898438 C 41.183594 47.75 43.335938 48.195312 45.570312 48.195312 C 47.804688 48.195312 49.957031 47.75 51.941406 46.898438 C 53.929688 46.042969 55.746094 44.78125 57.296875 43.160156 L 57.308594 43.148438 L 57.71875 42.722656 L 58.542969 41.875 L 59.570312 42.46875 L 60.074219 42.761719 C 65.101562 45.664062 68.617188 49.398438 70.863281 53.753906 C 73.273438 58.429688 74.195312 63.78125 73.933594 69.546875 L 73.871094 71.003906 L 32.632812 71.003906 L 32.632812 67.957031 " fill-opacity="1" fill-rule="nonzero"/></g><path fill="#545454" d="M 14.742188 44.1875 L 7.386719 51.210938 L 11.269531 51.210938 L 11.464844 52.515625 C 12.128906 56.957031 13.976562 60.238281 16.46875 62.621094 C 18.007812 64.09375 19.800781 65.234375 21.71875 66.109375 C 21.042969 65.199219 20.457031 64.226562 19.957031 63.195312 C 18.519531 60.21875 17.835938 56.765625 17.835938 52.734375 L 17.835938 51.210938 L 22.089844 51.210938 Z M 2.542969 51.632812 L 13.695312 40.984375 L 14.742188 39.984375 L 15.789062 40.984375 L 26.929688 51.632812 L 25.882812 54.257812 L 20.921875 54.257812 C 21.066406 57.179688 21.644531 59.703125 22.695312 61.875 C 23.90625 64.386719 25.769531 66.476562 28.332031 68.226562 L 27.191406 70.976562 C 22.566406 70.089844 17.929688 68.222656 14.375 64.824219 C 11.667969 62.234375 9.609375 58.789062 8.683594 54.257812 L 3.589844 54.257812 L 2.542969 51.632812 " fill-opacity="1" fill-rule="nonzero"/></svg>